<?xml version="1.0" encoding="UTF-8"?>
<svg xmlns="http://www.w3.org/2000/svg"
     viewBox="352.91 119.94 392.06 392.06"
     width="512" height="512">
  <g transform="matrix(0.618426,0,0,0.618426,288.747,57.9436)">
    <path d="M458.843,113.117C433.534,109.945 407.928,109.945 382.62,113.117L369.22,146.009C346.322,150.358 324.068,157.589 302.987,167.53L272.813,148.795C250.473,161.105 229.758,176.156 211.147,193.598L219.64,228.085C203.671,245.062 189.917,263.993 178.706,284.426L143.282,287.006C132.445,310.096 124.532,334.448 119.728,359.498L146.87,382.407C143.93,405.528 143.93,428.927 146.87,452.048L119.728,474.956C124.532,500.007 132.445,524.359 143.282,547.449L178.706,550.029C189.917,570.462 203.671,589.392 219.64,606.369L211.147,640.856C229.758,658.299 250.473,673.349 272.813,685.66L302.987,666.925C324.068,676.866 346.322,684.097 369.22,688.445L382.62,721.338C407.928,724.51 433.534,724.51 458.843,721.338L472.243,688.445C495.14,684.097 517.395,676.866 538.475,666.925L568.65,685.66C590.99,673.349 611.705,658.299 630.316,640.856L621.823,606.369C637.791,589.392 651.545,570.462 662.757,550.029L698.181,547.449C709.018,524.359 716.931,500.007 721.735,474.956L694.593,452.048C697.533,428.927 697.533,405.528 694.593,382.407L721.735,359.498C716.931,334.448 709.018,310.096 698.181,287.006L662.757,284.426C651.545,263.993 637.791,245.062 621.823,228.085L630.316,193.598C611.705,176.156 590.99,161.105 568.65,148.795L538.475,167.53C517.395,157.589 495.14,150.358 472.243,146.009L458.843,113.117ZM420.731,215.234C532.215,215.234 622.725,305.744 622.725,417.227C622.725,528.711 532.215,619.221 420.731,619.221C309.248,619.221 218.738,528.711 218.738,417.227C218.738,305.744 309.248,215.234 420.731,215.234Z"
          style="fill:#1a1a1a;stroke:#1a1a1a;stroke-width:9.7px;"/>
  </g>
</svg>
